<svg xmlns="http://www.w3.org/2000/svg" width="26" height="26" viewBox="0 0 26 26" fill="none">
  <path d="M24.1429 13C24.1429 15.9553 22.9689 18.7895 20.8792 20.8792C18.7895 22.9689 15.9553 24.1429 13 24.1429C10.0447 24.1429 7.21051 22.9689 5.12081 20.8792C3.03112 18.7895 1.85715 15.9553 1.85715 13M24.1429 13C24.1429 10.0447 22.9689 7.21051 20.8792 5.12081C18.7895 3.03112 15.9553 1.85715 13 1.85715C10.0447 1.85715 7.21051 3.03112 5.12081 5.12081C3.03112 7.21051 1.85715 10.0447 1.85715 13M24.1429 13H1.85715" stroke="white" stroke-width="2" stroke-linecap="round" stroke-linejoin="round"/>
  <path d="M17.2857 13C17.0752 17.0748 15.5743 20.9772 13 24.1429C10.4257 20.9772 8.92481 17.0748 8.71429 13C8.92481 8.92516 10.4257 5.02284 13 1.85715C15.5743 5.02284 17.0752 8.92516 17.2857 13Z" stroke="white" stroke-width="2" stroke-linecap="round" stroke-linejoin="round"/>
</svg>