<svg xmlns="http://www.w3.org/2000/svg" width="24" height="20" viewBox="0 0 24 20" fill="none">
  <path d="M21.35 1H2.65C1.73873 1 1 1.73873 1 2.65V16.95C1 17.8613 1.73873 18.6 2.65 18.6H21.35C22.2613 18.6 23 17.8613 23 16.95V2.65C23 1.73873 22.2613 1 21.35 1Z" stroke="white" stroke-width="2" stroke-linejoin="round"/>
  <path d="M1 2.65C1 2.21239 1.17384 1.79271 1.48327 1.48327C1.79271 1.17384 2.21239 1 2.65 1H21.35C21.7876 1 22.2073 1.17384 22.5167 1.48327C22.8262 1.79271 23 2.21239 23 2.65V7.6H1V2.65Z" stroke="white" stroke-width="2"/>
  <path d="M4.29999 4.2C4.24477 4.2 4.19999 4.24477 4.19999 4.3C4.19999 4.35523 4.24477 4.4 4.29999 4.4C4.35522 4.4 4.39999 4.35523 4.39999 4.3C4.39999 4.24477 4.35522 4.2 4.29999 4.2Z" fill="white" stroke="white" stroke-width="2"/>
  <path d="M7.60001 4.2C7.54478 4.2 7.50001 4.24477 7.50001 4.3C7.50001 4.35523 7.54478 4.4 7.60001 4.4C7.65524 4.4 7.70001 4.35523 7.70001 4.3C7.70001 4.24477 7.65524 4.2 7.60001 4.2Z" fill="white" stroke="white" stroke-width="2"/>
</svg>