<svg width="16" height="17" viewBox="0 0 16 17" fill="none" xmlns="http://www.w3.org/2000/svg">
<path d="M1.81333 0C1.33241 0 0.871179 0.197715 0.531113 0.54965C0.191047 0.901585 0 1.37891 0 1.87662C0 2.37433 0.191047 2.85166 0.531113 3.2036C0.871179 3.55553 1.33241 3.75325 1.81333 3.75325C2.29426 3.75325 2.75549 3.55553 3.09555 3.2036C3.43562 2.85166 3.62667 2.37433 3.62667 1.87662C3.62667 1.37891 3.43562 0.901585 3.09555 0.54965C2.75549 0.197715 2.29426 0 1.81333 0ZM0.106667 5.2987C0.0783769 5.2987 0.0512457 5.31033 0.0312419 5.33103C0.011238 5.35174 0 5.37981 0 5.40909V16.8896C0 16.9505 0.0477867 17 0.106667 17H3.52C3.54829 17 3.57542 16.9884 3.59542 16.9677C3.61543 16.947 3.62667 16.9189 3.62667 16.8896V5.40909C3.62667 5.37981 3.61543 5.35174 3.59542 5.33103C3.57542 5.31033 3.54829 5.2987 3.52 5.2987H0.106667ZM5.65333 5.2987C5.62504 5.2987 5.59791 5.31033 5.57791 5.33103C5.5579 5.35174 5.54667 5.37981 5.54667 5.40909V16.8896C5.54667 16.9505 5.59445 17 5.65333 17H9.06667C9.09496 17 9.12209 16.9884 9.14209 16.9677C9.1621 16.947 9.17333 16.9189 9.17333 16.8896V10.7078C9.17333 10.2686 9.3419 9.84746 9.64196 9.53693C9.94202 9.2264 10.349 9.05195 10.7733 9.05195C11.1977 9.05195 11.6046 9.2264 11.9047 9.53693C12.2048 9.84746 12.3733 10.2686 12.3733 10.7078V16.8896C12.3733 16.9505 12.4211 17 12.48 17H15.8933C15.9216 17 15.9488 16.9884 15.9688 16.9677C15.9888 16.947 16 16.9189 16 16.8896V9.27714C16 7.13382 14.1995 5.45766 12.1387 5.65107C11.5011 5.7116 10.8766 5.87488 10.2878 6.13501L9.17333 6.62956V5.40909C9.17333 5.37981 9.1621 5.35174 9.14209 5.33103C9.12209 5.31033 9.09496 5.2987 9.06667 5.2987H5.65333Z" fill="white"/>
</svg>
